# xmcd
#
# Track frame offsets: 
#        150
#        14161
#        29806
#        55384
#        70864
#        85165
#        98911
#        118827
#        132210
#        145222
#        159077
#        181870
#        203320
#        235629
#
# Disc length: 3408 seconds
#
# Revision: 11
# Processed by: cddbd v1.5.2PL0 Copyright (c) Steve Scherf et al.
# Submitted via: ExactAudioCopy v0.99pb5
#
DISCID=ba0d4e0e
DTITLE=bettinaglio, claudia - saving all my love
DYEAR=2001
DGENRE=Blues
TTITLE0=fumblin' with the blues
TTITLE1=clap hands
TTITLE2=invitation to the blues
TTITLE3=heartattack and vine
TTITLE4=jockey full of bourbon
TTITLE5=ice cream man
TTITLE6=wrong side of the road
TTITLE7=saving all my love for you
TTITLE8=romeo is bleeding
TTITLE9=swordfishtrombones
TTITLE10=dirt in the ground
TTITLE11=cold cold ground
TTITLE12=$29
TTITLE13=cold water
EXTD=A Tribute to Tom Waits YEAR: 2001
EXTT0=
EXTT1=
EXTT2=
EXTT3=
EXTT4=
EXTT5=
EXTT6=
EXTT7=
EXTT8=
EXTT9=
EXTT10=
EXTT11=
EXTT12=
EXTT13=
PLAYORDER=
